# xmcd
#
# Track frame offsets:
#	183
#	13523
#	31510
#
# Disc length: 593 seconds
#
# Revision: 0
# Processed by: cddbd v1.5PL3 Copyright (c) Steve Scherf et al.
# Submitted via: audiograbber 1.83.01
#
DISCID=11024f03
DTITLE=Truck Stop - Arizona - Arizona
DYEAR=1900
DGENRE=
TTITLE0=Arizona-Arizona
TTITLE1=Kleine Cowboys werden gross
TTITLE2=Die Frau mit dem Gurt
EXTD=
EXTT0=
EXTT1=
EXTT2=
PLAYORDER=
